<svg width="24" height="24" viewBox="0 0 24 24" fill="none" xmlns="http://www.w3.org/2000/svg">
<path d="M12 1C5.93464 1 1 5.93464 1 12C1 18.0654 5.93464 23 12 23C18.0654 23 23 18.0654 23 12C23 5.93464 18.0654 1 12 1ZM12 2.65C17.1736 2.65 21.35 6.82637 21.35 12C21.35 16.2159 18.5763 19.7674 14.75 20.9386V18.1252C14.75 17.0746 14.1446 16.1737 13.2697 15.7254C14.1204 15.5626 14.9103 15.2399 15.5739 14.784C16.2374 14.3281 16.7555 13.7522 17.0851 13.1041C17.4147 12.4559 17.5463 11.7542 17.469 11.0572C17.3917 10.3602 17.1077 9.688 16.6406 9.09639C16.8846 8.34548 17.1571 7.02837 16.5096 5.99189C15.2611 5.99189 14.4556 6.84765 14.0711 7.37979C13.4138 7.16387 12.7105 7.05188 12 7.05C11.289 7.05063 10.585 7.16153 9.92676 7.37656C9.54135 6.84418 8.73642 5.99189 7.49043 5.99189C6.74734 7.18135 7.20671 8.46051 7.45283 8.98252C6.95417 9.57158 6.64149 10.2486 6.54159 10.9555C6.44169 11.6625 6.55756 12.3782 6.87926 13.0415C7.20096 13.7047 7.71889 14.2957 8.38867 14.7637C9.05845 15.2317 9.8601 15.5628 10.7249 15.7286C10.0065 16.0989 9.46851 16.7707 9.30371 17.5859H8.58076C7.86741 17.5859 7.59024 17.2961 7.20469 16.8071C6.82409 16.3182 6.41484 15.9896 5.92314 15.8532C5.65804 15.8252 5.47945 16.0268 5.71045 16.2056C6.4909 16.7369 6.54476 17.6064 6.85772 18.1757C7.14261 18.6883 7.72633 19.15 8.38633 19.15H9.25V20.9386C5.42368 19.7674 2.65 16.2159 2.65 12C2.65 6.82637 6.82636 2.65 12 2.65Z" fill="white"/>
</svg>
