<svg width="60" height="60" viewBox="0 0 60 60" fill="none" xmlns="http://www.w3.org/2000/svg">
    <g clip-path="url(#clip0_237_172)">
        <rect width="60" height="60" fill="#070E22" />
        <g clip-path="url(#clip1_237_172)">
            <path
                d="M37.3006 19.0408C35.4315 19.2435 33.7524 19.4771 32.2271 19.7638C27.5664 20.6404 24.884 21.9242 22.9041 23.9041C20.9242 25.884 19.6403 28.5664 18.7638 33.2271C17.8655 38.0038 17.488 44.2893 16.964 53.1972L16.1924 66.3107C16.0573 68.6078 14.0854 70.3605 11.7884 70.2256C9.49115 70.0904 7.73835 68.1185 7.87355 65.8214L8.66207 52.4181C9.16491 43.866 9.5659 37.0479 10.574 31.687C11.6154 26.1493 13.3906 21.6325 17.0115 18.0115C20.6325 14.3906 25.1494 12.6153 30.687 11.574C32.8203 11.1728 35.1841 10.868 37.7965 10.6142L37.3006 19.0408Z"
                fill="#0C142D" />
            <path
                d="M54.066 17.854L65.3105 17.1925C67.6077 17.0573 69.3604 15.0854 69.2255 12.7884C69.0903 10.4912 67.1183 8.73849 64.8214 8.87343L54.5586 9.47713L54.066 17.854Z"
                fill="#0C142D" />
            <path
                d="M5.00746 43.5879L-5.88941 44.2289C-8.18662 44.364 -9.93934 46.3358 -9.80419 48.6331C-9.66907 50.9303 -7.69728 52.683 -5.40003 52.5478L4.51464 51.9646L5.00746 43.5879Z"
                fill="#0C142D" />
            <path
                d="M21.2764 50.8405C24.0273 50.5804 26.5064 50.2661 28.7343 49.8473C34.2721 48.8061 38.7887 47.0307 42.4097 43.4097C46.0307 39.7887 47.8061 35.2721 48.8473 29.7343C49.8552 24.3735 50.2565 17.5552 50.7591 9.00338L51.5479 -4.4001C51.6828 -6.69707 49.9301 -8.66893 47.633 -8.8041C45.3358 -8.93931 43.3639 -7.18651 43.2287 -4.88924L42.4574 8.22409C41.9333 17.1322 41.5559 23.4175 40.6575 28.1943C39.781 32.855 38.497 35.5373 36.5171 37.5172C34.5372 39.4971 31.8549 40.7811 27.1943 41.6575C25.5746 41.962 23.7817 42.2069 21.7719 42.4177L21.2764 50.8405Z"
                fill="#0C142D" />
        </g>
        <path
            d="M36.8094 28.5575C36.0769 27.9684 35.4006 27.4573 34.76 27.0194C32.8023 25.6815 31.4 25.1871 30 25.1871C28.6 25.1871 27.1977 25.6815 25.24 27.0194C23.2336 28.3907 20.8779 30.4794 17.5432 33.4436L12.6341 37.8071C11.7741 38.5715 10.4573 38.494 9.69288 37.6342C8.92846 36.7742 9.00592 35.4573 9.8659 34.6929L14.8835 30.2329C18.0849 27.3871 20.6372 25.1183 22.889 23.5794C25.215 21.9897 27.4396 21.0204 30 21.0204C32.5604 21.0204 34.785 21.9897 37.111 23.5794C38.0071 24.1918 38.9506 24.9197 39.9639 25.7536L36.8094 28.5575Z"
            fill="#4579FF" />
        <path
            d="M43.1565 34.0655L47.3659 37.8071C48.2259 38.5715 49.5427 38.494 50.3071 37.6342C51.0715 36.7742 50.994 35.4573 50.1342 34.693L46.2923 31.278L43.1565 34.0655Z"
            fill="#4579FF" />
        <path
            d="M16.7133 25.8189L12.6341 22.1929C11.7741 21.4285 10.4573 21.506 9.69288 22.366C8.92846 23.2259 9.00592 24.5427 9.8659 25.3072L13.5775 28.6063L16.7133 25.8189Z"
            fill="#144EE3" />
        <path
            d="M19.901 34.135C20.9656 35.0157 21.9532 35.7811 22.8889 36.4207C25.215 38.0105 27.4395 38.9796 29.9999 38.9796C32.5604 38.9796 34.7849 38.0105 37.111 36.4207C39.3626 34.8817 41.9151 32.613 45.1164 29.7671L50.1341 25.3072C50.9939 24.5427 51.0714 23.2259 50.307 22.366C49.5426 21.506 48.2258 21.4285 47.3658 22.1929L42.4568 26.5565C39.122 29.5207 36.7664 31.6094 34.7599 32.9807C32.8022 34.3186 31.3999 34.813 29.9999 34.813C28.5999 34.813 27.1976 34.3186 25.24 32.9807C24.5597 32.5157 23.8392 31.9684 23.0541 31.3323L19.901 34.135Z"
            fill="#144EE3" />
    </g>
    <defs>
        <clipPath id="clip0_237_172">
            <rect width="60" height="60" fill="white" />
        </clipPath>
        <clipPath id="clip1_237_172">
            <rect width="100" height="100" fill="white"
                transform="translate(-41 30.7107) rotate(-45)" />
        </clipPath>
    </defs>
</svg>