<svg width="24" height="24" viewBox="0 0 24 24" fill="none" xmlns="http://www.w3.org/2000/svg">
    <path
        d="M8.39974 3C7.89057 3 7.41833 3.11379 7 3.35422C5.69261 4.10776 5.19497 5.94408 5.45866 8.23037C3.34392 9.14555 2 10.4931 2 12C2 13.5069 3.34392 14.8545 5.45866 15.7696C5.19511 18.0558 5.69261 19.8922 7 20.6458C7.4175 20.8862 7.88974 21 8.39974 21C9.48526 21 10.7399 20.4561 12 19.523C13.2602 20.4561 14.5164 21 15.6019 21C16.1111 21 16.5833 20.8862 17.0016 20.6458C18.309 19.8922 18.8066 18.0559 18.543 15.7696C20.6569 14.8545 22 13.5066 22 12C22 10.4931 20.6561 9.14555 18.5413 8.23037C18.8049 5.94417 18.3074 4.10776 17 3.35422C16.5825 3.11296 16.1103 3 15.6003 3C14.5147 3 13.2601 3.54388 12 4.47698C10.7398 3.54388 9.48489 3 8.39974 3ZM8.39974 4.45586C9.0511 4.45586 9.91247 4.80161 10.8477 5.44214C10.2978 5.96016 9.75929 6.54921 9.24121 7.20509C8.4009 7.32538 7.60862 7.50072 6.87467 7.72017C6.87073 7.66935 6.8614 7.61604 6.8584 7.56581C6.76923 6.08499 7.095 4.98114 7.72917 4.61509C7.91667 4.50694 8.13557 4.45586 8.39974 4.45586ZM15.6003 4.45586C15.8636 4.45586 16.0833 4.50694 16.2708 4.61509C16.905 4.98031 17.2308 6.08499 17.1416 7.56581C17.1386 7.61604 17.1293 7.66935 17.1253 7.72017C16.3909 7.50059 15.5981 7.32539 14.7572 7.20509C14.2391 6.5493 13.7022 5.9601 13.1523 5.44214C14.0875 4.80172 14.9492 4.45586 15.6003 4.45586ZM12 6.36667C12.2259 6.57194 12.4502 6.78889 12.6771 7.02636C12.4523 7.01882 12.2286 7.00849 12 7.00849C11.7719 7.00849 11.5488 7.01886 11.3245 7.02636C11.5512 6.78913 11.7743 6.57174 12 6.36667ZM12 8.46434C12.6906 8.46434 13.3451 8.50288 13.9661 8.56996C14.3449 9.08387 14.7181 9.62721 15.068 10.2322C15.4034 10.812 15.6999 11.4056 15.9616 12C15.6999 12.5948 15.4036 13.1892 15.068 13.7695C14.7192 14.3727 14.3469 14.9125 13.9694 15.4252C13.3264 15.4954 12.6668 15.5357 12 15.5357C11.3094 15.5357 10.6549 15.4971 10.0339 15.43C9.65512 14.9161 9.28186 14.3744 8.93197 13.7695C8.5964 13.1892 8.30016 12.5948 8.03841 12C8.29998 11.4056 8.59661 10.812 8.93197 10.2322C9.2809 9.62895 9.65301 9.08749 10.0306 8.57483C10.6736 8.5046 11.3332 8.46434 12 8.46434ZM15.9551 8.91443C16.2857 8.99411 16.6035 9.08014 16.9023 9.17602C16.8346 9.48138 16.7519 9.79259 16.6582 10.1071C16.551 9.90618 16.447 9.70465 16.3311 9.50424C16.2118 9.29809 16.0794 9.11287 15.9551 8.91443ZM8.04329 8.91605C7.91942 9.11389 7.78784 9.29875 7.66895 9.50424C7.55306 9.70469 7.449 9.90615 7.3418 10.1071C7.24792 9.79194 7.16379 9.48036 7.09603 9.1744C7.40031 9.07842 7.71736 8.99343 8.04329 8.91605ZM5.72396 9.70897C5.89954 10.4491 6.14311 11.2163 6.45638 11.9984C6.14377 12.7786 5.90123 13.5444 5.72559 14.2829C4.27436 13.5833 3.45833 12.7124 3.45833 12C3.45833 11.2687 4.25156 10.4354 5.58073 9.77234C5.6261 9.74968 5.6776 9.7311 5.72396 9.70897ZM18.2744 9.7171C19.7256 10.4167 20.5417 11.2876 20.5417 12C20.5417 12.7313 19.7484 13.5646 18.4193 14.2277C18.3739 14.2503 18.3224 14.2689 18.276 14.291C18.1004 13.5505 17.8588 12.7826 17.5452 12C17.8575 11.2204 18.0989 10.455 18.2744 9.7171ZM12 10.3362C11.0792 10.3362 10.3333 11.0807 10.3333 12C10.3333 12.9193 11.0792 13.6638 12 13.6638C12.9208 13.6638 13.6667 12.9193 13.6667 12C13.6667 11.0807 12.9208 10.3362 12 10.3362ZM7.3418 13.8929C7.44907 14.0939 7.55461 14.2953 7.67057 14.4958C7.78972 14.7018 7.92076 14.8873 8.04492 15.0856C7.7143 15.0059 7.39646 14.9199 7.09766 14.824C7.1654 14.5184 7.24806 14.2076 7.3418 13.8929ZM16.6582 13.8946C16.752 14.2094 16.8363 14.5199 16.904 14.8256C16.5997 14.9216 16.2826 15.0066 15.9567 15.084C16.0806 14.8861 16.2122 14.7012 16.3311 14.4958C16.4467 14.2957 16.5512 14.0951 16.6582 13.8946ZM6.87467 16.2798C7.60908 16.4994 8.40194 16.6746 9.24284 16.7949C9.76107 17.451 10.2976 18.0413 10.8477 18.5595C9.91254 19.1998 9.05106 19.5458 8.39974 19.5458C8.13641 19.5458 7.91667 19.4931 7.72917 19.3849C7.095 19.0197 6.76923 17.9166 6.8584 16.4358C6.86145 16.3851 6.87066 16.3312 6.87467 16.2798ZM17.1253 16.2798C17.1293 16.3312 17.1386 16.3851 17.1416 16.4358C17.2308 17.9166 16.905 19.0189 16.2708 19.3849C16.0833 19.4931 15.8644 19.5458 15.6003 19.5458C14.9489 19.5458 14.0875 19.1999 13.1523 18.5595C13.7025 18.0413 14.2405 17.4511 14.7588 16.7949C15.5991 16.6746 16.3914 16.4993 17.1253 16.2798ZM11.3229 16.9736C11.5477 16.9812 11.7714 16.9915 12 16.9915C12.2286 16.9915 12.4523 16.9812 12.6771 16.9736C12.4502 17.2111 12.2259 17.4281 12 17.6333C11.7741 17.4281 11.5498 17.2111 11.3229 16.9736Z"
        fill="#58C4DC" />
</svg>