<svg width="24" height="24" viewBox="0 0 24 24" fill="none" xmlns="http://www.w3.org/2000/svg">
    <path
        d="M16.3401 16.167C17.1704 16.0825 17.8004 15.3788 17.7717 14.5342C17.7431 13.6898 17.0273 13.0141 16.1683 13.0141H16.111C15.2233 13.0423 14.5363 13.7742 14.5649 14.6468C14.5936 15.0691 14.7653 15.435 15.023 15.6884C14.0495 17.5745 12.5606 18.9538 10.3273 20.108C8.8098 20.8961 7.2351 21.1777 5.66036 20.9806C4.37188 20.8118 3.36976 20.2488 2.73976 19.3197C1.82358 17.9404 1.73771 16.4484 2.5108 14.9565C3.05484 13.8868 3.91371 13.0985 4.45775 12.7044C4.34323 12.3385 4.1714 11.7192 4.08553 11.2688C-0.066154 14.2246 0.363368 18.2219 1.62319 20.108C2.56801 21.5155 4.4864 22.3882 6.60518 22.3882C7.17779 22.3882 7.75042 22.3318 8.32312 22.1912C11.9881 21.4874 14.7654 19.3479 16.3401 16.167ZM21.3794 12.6763C19.2034 10.171 15.9965 8.79165 12.3316 8.79165H11.8735C11.6158 8.28495 11.0718 7.94707 10.4705 7.94707H10.4132C9.52567 7.97527 8.8386 8.70712 8.86717 9.57982C8.89582 10.4243 9.61155 11.0999 10.4705 11.0999H10.5277C11.1577 11.0718 11.7017 10.6777 11.9308 10.1428H12.4461C14.6222 10.1428 16.6837 10.762 18.5449 11.9725C19.9764 12.9015 21.0072 14.112 21.5798 15.5758C22.0666 16.7581 22.0379 17.9123 21.5225 18.8975C20.7208 20.3894 19.3752 21.2058 17.6 21.2058C16.4546 21.2058 15.3667 20.868 14.794 20.6147C14.479 20.8961 13.9063 21.3465 13.5055 21.6281C14.7367 22.1911 15.9965 22.5007 17.1991 22.5007C19.9478 22.5007 21.9807 21.0087 22.7538 19.5168C23.584 17.8841 23.5267 15.0691 21.3794 12.6763ZM6.83422 16.6454C6.86288 17.4899 7.57867 18.1655 8.43765 18.1655H8.49495C9.3825 18.1374 10.0696 17.4055 10.041 16.5329C10.0124 15.6883 9.29655 15.0128 8.43765 15.0128H8.38042C8.32312 15.0128 8.23717 15.0127 8.18002 15.0408C7.00605 13.1266 6.51931 11.0436 6.69114 8.79158C6.80557 7.10255 7.37827 5.63871 8.38042 4.42822C9.21067 3.38666 10.8141 2.87997 11.9022 2.85189C14.9371 2.79555 16.2255 6.51134 16.3115 8.00332C16.6837 8.08778 17.3136 8.28487 17.7431 8.42565C17.3995 3.86536 14.5363 1.50073 11.7877 1.50073C9.21067 1.50073 6.83422 3.3305 5.88931 6.0329C4.57228 9.63608 5.43123 13.0985 7.03462 15.8291C6.89153 16.0261 6.80557 16.3357 6.83422 16.6454Z"
        fill="#764ABC" />
</svg>