<svg xmlns="http://www.w3.org/2000/svg" version="1.1" xmlns:xlink="http://www.w3.org/1999/xlink" width="60" height="60"><svg width="60" height="60" viewBox="0 0 60 60" fill="none" xmlns="http://www.w3.org/2000/svg">
<rect width="60" height="60" rx="20" fill="#070E22"></rect>
<path d="M36.8094 28.5575C36.0769 27.9683 35.4006 27.4573 34.76 27.0194C32.8023 25.6815 31.4 25.187 30 25.187C28.6 25.187 27.1977 25.6815 25.24 27.0194C23.2336 28.3906 20.8779 30.4794 17.5432 33.4435L12.6341 37.8071C11.7741 38.5715 10.4573 38.494 9.69288 37.6342C8.92846 36.7742 9.00592 35.4573 9.8659 34.6929L14.8835 30.2329C18.0849 27.3871 20.6372 25.1183 22.889 23.5794C25.215 21.9897 27.4396 21.0204 30 21.0204C32.5604 21.0204 34.785 21.9897 37.111 23.5794C38.0071 24.1918 38.9506 24.9197 39.9639 25.7536L36.8094 28.5575Z" fill="#4579FF"></path>
<path d="M43.1564 34.0654L47.3658 37.8071C48.2258 38.5715 49.5427 38.494 50.3071 37.6342C51.0714 36.7742 50.9939 35.4573 50.1341 34.6929L46.2923 31.2779L43.1564 34.0654Z" fill="#4579FF"></path>
<path d="M16.7133 25.8189L12.6341 22.1929C11.7741 21.4285 10.4573 21.5059 9.69288 22.3659C8.92846 23.2259 9.00592 24.5427 9.8659 25.3071L13.5775 28.6062L16.7133 25.8189Z" fill="#144EE3"></path>
<path d="M19.9011 34.135C20.9656 35.0156 21.9533 35.781 22.889 36.4206C25.215 38.0104 27.4396 38.9796 30 38.9796C32.5604 38.9796 34.785 38.0104 37.111 36.4206C39.3627 34.8817 41.9152 32.6129 45.1165 29.7671L50.1342 25.3071C50.994 24.5427 51.0715 23.2259 50.3071 22.3659C49.5427 21.5059 48.2258 21.4285 47.3658 22.1929L42.4569 26.5564C39.1221 29.5206 36.7665 31.6094 34.76 32.9806C32.8023 34.3185 31.4 34.8129 30 34.8129C28.6 34.8129 27.1977 34.3185 25.24 32.9806C24.5597 32.5156 23.8393 31.9683 23.0541 31.3323L19.9011 34.135Z" fill="#144EE3"></path>
</svg><style>@media (prefers-color-scheme: light) { :root { filter: none; } }
@media (prefers-color-scheme: dark) { :root { filter: none; } }
</style></svg>